<svg xmlns="http://www.w3.org/2000/svg" xmlns:xlink="http://www.w3.org/1999/xlink" viewBox="0 0 116.48 121.32"><defs><style>.cls-1{fill:#277d20;}.cls-2{fill:url(#linear-gradient);}.cls-3{fill:url(#linear-gradient-2);}</style><linearGradient id="linear-gradient" x1="1080.96" y1="-662.25" x2="1094.92" y2="-699.33" gradientTransform="matrix(0.66, -0.76, 0.76, 0.66, -152.05, 1314.03)" gradientUnits="userSpaceOnUse"><stop offset="0" stop-color="#38b02c"/><stop offset="0.24" stop-color="#38bc28"/><stop offset="0.62" stop-color="#38c824"/><stop offset="1" stop-color="#38cc23"/></linearGradient><linearGradient id="linear-gradient-2" x1="709.33" y1="3277.39" x2="723.29" y2="3240.31" gradientTransform="matrix(-0.66, 0.76, -0.76, -0.66, 3000.55, 1658.57)" xlink:href="#linear-gradient"/></defs><g id="Final_Logo" data-name="Final Logo"><path class="cls-1" d="M42.14,35a19.22,19.22,0,0,1,20.77-5.27,10.86,10.86,0,0,0,11.68-3l.09-.1A10.42,10.42,0,0,0,70.3,9.78,41.22,41.22,0,0,0,25.84,21.09a38.9,38.9,0,0,0-5.18,44.59,10.92,10.92,0,0,0,17.63,1.87h0a10.28,10.28,0,0,0,1.44-11.74A18.15,18.15,0,0,1,42.14,35Z"/><path class="cls-1" d="M73.84,75.41a19.26,19.26,0,0,1-20.77,5.27,10.87,10.87,0,0,0-11.69,3l-.09.1a10.42,10.42,0,0,0,4.39,16.78,41.21,41.21,0,0,0,44.46-11.3,38.9,38.9,0,0,0,5.18-44.59,10.91,10.91,0,0,0-17.63-1.87h0a10.27,10.27,0,0,0-1.44,11.73A18.17,18.17,0,0,1,73.84,75.41Z"/><path class="cls-2" d="M79.93,9.05a52.31,52.31,0,0,0-65.5,10.06,49.36,49.36,0,0,0-2.17,63.23h0a6.74,6.74,0,0,0,1.87,2.54l2.41,2a7.2,7.2,0,0,0,10-.69l32.4-36.48A6.8,6.8,0,0,0,58.22,40l-2.4-2a7.18,7.18,0,0,0-10,.69l-3.78,4.26c-8.93,10-24.82-2.42-16.52-13,.44-.55.89-1.1,1.37-1.64a36.45,36.45,0,0,1,45.58-7,7.41,7.41,0,0,0,9.74-1.89A7.08,7.08,0,0,0,79.93,9.05Z"/><path class="cls-3" d="M36.05,101.35c21,12.47,48.83,8.7,65.49-10.06a49.35,49.35,0,0,0,2.18-63.23h0a6.82,6.82,0,0,0-1.87-2.53l-2.41-2.05a7.21,7.21,0,0,0-10,.69L57.05,60.64a6.8,6.8,0,0,0,.71,9.75l2.39,2a7.21,7.21,0,0,0,10-.69l3.78-4.27c8.93-10,24.82,2.42,16.52,13-.44.56-.9,1.11-1.37,1.64a36.44,36.44,0,0,1-45.58,7A7.42,7.42,0,0,0,33.75,91,7.09,7.09,0,0,0,36.05,101.35Z"/></g></svg>